<svg width="32" height="32" viewBox="0 0 32 32" fill="none" xmlns="http://www.w3.org/2000/svg">
  <rect width="32" height="32" rx="8" fill="url(#gradient)"/>
  <path d="M16 8C16 8 12 10 12 14C12 16 13 17 14 17.5C14.5 17.75 15 18 15 18.5C15 19 14.5 19.5 14 20C13 21 12 22 12 24C12 26 14 28 16 28C18 28 20 26 20 24C20 22 19 21 18 20C17.5 19.5 17 19 17 18.5C17 18 17.5 17.75 18 17.5C19 17 20 16 20 14C20 10 16 8 16 8Z" fill="white"/>
  <circle cx="16" cy="14" r="2" fill="url(#gradient)"/>
  <defs>
    <linearGradient id="gradient" x1="0" y1="0" x2="32" y2="32" gradientUnits="userSpaceOnUse">
      <stop stop-color="#14b8a6"/>
      <stop offset="1" stop-color="#10b981"/>
    </linearGradient>
  </defs>
</svg>