<svg width="140" height="48" viewBox="0 0 140 48" fill="none" xmlns="http://www.w3.org/2000/svg">
  <rect width="140" height="48" rx="8" fill="white" fill-opacity="0.1"/>
  <rect x="0.5" y="0.5" width="139" height="47" rx="7.5" stroke="white" stroke-opacity="0.3"/>
  
  <!-- Play Store Triangle -->
  <g transform="translate(10, 10)">
    <path d="M4 3.71v20.57L18.2 14 4 3.71z" fill="url(#play_gradient1_white)"/>
    <path d="M22.34 16.27L18.2 14l-4.38 4.38L18.2 23l4.14-2.35c1.33-.75 1.33-1.97 0-2.73" fill="url(#play_gradient2_white)"/>
    <path d="M4 24.28L18.2 14 4 3.71c0-.76.52-1.42 1.28-1.59l17.06 9.88L5.28 25.87C4.52 25.7 4 25.04 4 24.28" fill="url(#play_gradient3_white)"/>
    <path d="M18.2 14L5.28 2.12c.19-.05.39-.08.59-.08.35 0 .7.1 1.01.3l15.46 8.94L18.2 14z" fill="url(#play_gradient4_white)"/>
  </g>
  
  <!-- Text -->
  <text x="45" y="20" font-family="-apple-system, BlinkMacSystemFont, 'Segoe UI', Roboto, sans-serif" font-size="10" fill="white">GET IT ON</text>
  <text x="45" y="34" font-family="-apple-system, BlinkMacSystemFont, 'Segoe UI', Roboto, sans-serif" font-size="14" font-weight="500" fill="white">Google Play</text>
  
  <defs>
    <linearGradient id="play_gradient1_white" x1="13.376" y1="1.768" x2="3.988" y2="10.884" gradientUnits="userSpaceOnUse">
      <stop stop-color="#87CEEB"/>
      <stop offset="1" stop-color="#98FB98"/>
    </linearGradient>
    <linearGradient id="play_gradient2_white" x1="24.827" y1="14" x2="2.069" y2="14" gradientUnits="userSpaceOnUse">
      <stop stop-color="#FFE4B5"/>
      <stop offset="1" stop-color="#FFB6C1"/>
    </linearGradient>
    <linearGradient id="play_gradient3_white" x1="16.256" y1="16.368" x2="1.239" y2="30.873" gradientUnits="userSpaceOnUse">
      <stop stop-color="#FFB6C1"/>
      <stop offset="1" stop-color="#FFA07A"/>
    </linearGradient>
    <linearGradient id="play_gradient4_white" x1="1.896" y1="0.01" x2="10.163" y2="8.083" gradientUnits="userSpaceOnUse">
      <stop stop-color="#98FB98"/>
      <stop offset="1" stop-color="#90EE90"/>
    </linearGradient>
  </defs>
</svg>