<svg width="400" height="800" viewBox="0 0 400 800" fill="none" xmlns="http://www.w3.org/2000/svg">
  <!-- Phone frame -->
  <rect x="20" y="20" width="360" height="760" rx="40" fill="#1a1a1a"/>
  <rect x="25" y="25" width="350" height="750" rx="35" fill="#000000"/>
  
  <!-- Screen -->
  <rect x="35" y="80" width="330" height="640" rx="20" fill="#ffffff"/>
  
  <!-- Status bar -->
  <rect x="35" y="80" width="330" height="30" fill="#14b8a6"/>
  
  <!-- App content placeholder -->
  <rect x="50" y="130" width="300" height="80" rx="10" fill="#f0fdfa"/>
  <rect x="50" y="230" width="140" height="120" rx="10" fill="#ccfbf1"/>
  <rect x="210" y="230" width="140" height="120" rx="10" fill="#99f6e4"/>
  <rect x="50" y="370" width="300" height="60" rx="10" fill="#5eead4"/>
  <rect x="50" y="450" width="300" height="200" rx="10" fill="#2dd4bf"/>
  
  <!-- Bottom navigation -->
  <rect x="35" y="670" width="330" height="50" fill="#f8f8f8"/>
  <circle cx="100" cy="695" r="15" fill="#14b8a6"/>
  <circle cx="200" cy="695" r="15" fill="#cccccc"/>
  <circle cx="300" cy="695" r="15" fill="#cccccc"/>
  
  <!-- Notch -->
  <rect x="150" y="40" width="100" height="25" rx="12" fill="#1a1a1a"/>
</svg>